<?xml version="1.0" standalone="no"?>
<!DOCTYPE svg PUBLIC "-//W3C//DTD SVG 20010904//EN"
 "http://www.w3.org/TR/2001/REC-SVG-20010904/DTD/svg10.dtd">
<svg version="1.0" xmlns="http://www.w3.org/2000/svg"
 width="658.000000pt" height="173.000000pt" viewBox="0 0 658.000000 173.000000"
 preserveAspectRatio="xMidYMid meet">

<g transform="translate(0.000000,173.000000) scale(0.100000,-0.100000)"
fill="#000000" stroke="none">
<path d="M6110 1411 c-141 -43 -220 -188 -175 -323 45 -139 180 -208 326 -168
49 14 122 80 148 133 47 97 16 239 -67 307 -62 51 -160 73 -232 51z m141 -36
c24 -9 61 -32 81 -52 103 -100 86 -273 -34 -349 -49 -31 -137 -42 -192 -24
-129 42 -191 206 -123 322 57 98 164 139 268 103z"/>
<path d="M6007 1243 c-14 -13 -6 -23 18 -23 24 0 25 -2 25 -70 0 -63 2 -70 20
-70 18 0 20 7 20 70 0 68 1 70 25 70 16 0 25 6 25 15 0 12 -14 15 -63 15 -35
0 -67 -3 -70 -7z"/>
<path d="M6160 1165 c0 -68 3 -85 15 -85 10 0 15 15 17 58 l3 57 20 -55 c11
-31 26 -55 34 -55 8 0 21 20 30 45 l16 45 3 -47 c3 -40 6 -48 23 -48 18 0 20
6 17 83 -3 76 -5 82 -25 85 -18 3 -24 -5 -39 -52 -10 -31 -21 -56 -24 -56 -4
0 -15 25 -25 55 -16 45 -23 55 -42 55 -22 0 -23 -3 -23 -85z"/>
<path d="M2385 1401 c-70 -18 -136 -72 -169 -138 -26 -52 -39 -166 -27 -235
16 -90 50 -140 192 -279 148 -145 168 -179 169 -281 0 -78 -15 -101 -64 -96
-44 4 -56 35 -56 146 l0 92 -125 0 -125 0 0 -72 c1 -283 88 -390 320 -392 77
0 104 3 141 20 113 52 166 175 157 366 -6 148 -31 191 -216 374 -124 124 -150
155 -156 186 -12 68 36 108 89 74 22 -14 25 -24 25 -71 l0 -55 126 0 127 0 -6
73 c-17 202 -98 286 -285 293 -48 2 -100 0 -117 -5z"/>
<path d="M5427 1400 c-82 -21 -146 -73 -181 -150 -20 -43 -21 -64 -24 -430 -2
-262 0 -404 8 -444 19 -97 74 -166 165 -208 70 -32 198 -32 270 0 91 42 146
113 164 216 15 81 15 728 0 798 -21 100 -75 171 -154 204 -47 20 -192 28 -248
14z m129 -228 c31 -20 34 -54 34 -397 0 -386 -3 -405 -60 -405 -59 0 -60 7
-60 398 0 350 3 384 34 404 6 4 18 8 26 8 8 0 20 -4 26 -8z"/>
<path d="M175 1388 c-3 -7 -4 -287 -3 -623 l3 -610 123 -3 122 -3 0 286 c0
266 8 345 24 227 5 -38 75 -378 101 -490 5 -21 9 -22 125 -22 l120 0 0 625 0
625 -120 0 -120 0 0 -277 c0 -166 -4 -273 -9 -267 -5 5 -16 52 -25 104 -9 52
-31 172 -50 265 l-33 170 -127 3 c-96 2 -128 -1 -131 -10z"/>
<path d="M910 775 l0 -625 260 0 260 0 0 120 0 120 -135 0 -136 0 3 143 3 142
118 3 117 3 0 114 0 114 -117 3 -118 3 0 120 0 120 123 3 122 3 0 119 0 120
-250 0 -250 0 0 -625z"/>
<path d="M1518 1394 c-9 -8 -11 -1205 -2 -1228 5 -13 25 -16 125 -16 l119 0 0
245 0 245 73 0 c100 0 164 21 209 67 46 47 65 100 80 218 20 168 -16 338 -88
408 -59 59 -71 62 -299 65 -116 2 -213 0 -217 -4z m314 -225 c30 -16 48 -71
48 -147 0 -114 -24 -152 -96 -152 l-24 0 0 155 0 155 26 0 c14 0 34 -5 46 -11z"/>
<path d="M2844 1387 c-2 -7 -3 -60 -2 -118 l3 -104 72 -3 c52 -2 73 -7 77 -18
3 -8 5 -235 3 -504 l-2 -490 128 0 127 0 0 505 0 505 75 0 75 0 0 120 0 120
-275 0 c-219 0 -277 -3 -281 -13z"/>
<path d="M3462 873 l3 -528 25 -49 c55 -108 135 -151 280 -151 74 0 92 4 145
30 73 36 127 109 144 194 7 35 11 229 11 543 l0 488 -119 0 -120 0 -3 -488
c-3 -451 -4 -490 -21 -516 -15 -22 -25 -27 -50 -24 -57 5 -57 5 -57 541 l0
487 -120 0 -121 0 3 -527z"/>
<path d="M4170 775 l0 -627 213 4 c205 3 214 4 262 29 56 28 95 78 122 154 16
45 18 92 18 465 l0 415 -24 45 c-30 59 -57 87 -106 113 -37 20 -57 22 -262 25
l-223 3 0 -626z m349 390 c14 -14 16 -63 16 -391 0 -360 -1 -376 -19 -390 -11
-8 -37 -14 -58 -14 l-38 0 0 403 c0 222 3 407 8 411 11 12 74 -1 91 -19z"/>
<path d="M4880 775 l0 -626 123 3 122 3 0 620 0 620 -122 3 -123 3 0 -626z"/>
</g>
</svg>
